<svg width="40" height="40" viewBox="0 0 40 40" fill="none" xmlns="http://www.w3.org/2000/svg">
<path d="M15.9972 19.8793L18.67 17.2071C15.56 15.7779 11.7524 16.3415 9.19414 18.9004C5.91185 22.1822 5.91185 27.5233 9.19414 30.8062C12.4758 34.0886 17.8176 34.0886 21.0994 30.8062C23.6577 28.248 24.2219 24.4398 22.7928 21.3298L20.12 24.0025C20.3841 25.5632 19.9206 27.2232 18.7185 28.4247C16.749 30.3949 13.5446 30.3949 11.5752 28.4247C9.60563 26.4552 9.60563 23.2509 11.5752 21.2819C12.7771 20.0793 14.4371 19.6151 15.9972 19.8793Z" fill="#6949A8"/>
<path d="M25.2835 18.8393C27.9651 23.3609 27.365 29.3034 23.4807 33.1871C18.8849 37.7829 11.4082 37.7829 6.813 33.1871C2.21719 28.592 2.21719 21.1146 6.813 16.5188C10.6961 12.6351 16.6392 12.035 21.1608 14.716L23.5995 12.2765C17.7099 8.31611 9.63427 8.9351 4.43142 14.1372C-1.47714 20.0452 -1.47714 29.66 4.43142 35.568C10.3401 41.4772 19.9537 41.4772 25.8622 35.568C31.0656 30.3652 31.684 22.2896 27.7223 16.3992L25.2835 18.8393Z" fill="#6949A8"/>
<path d="M39.9438 6.62803C39.8181 6.30029 39.4998 6.09834 39.1393 6.11474L33.6264 6.37334L33.8856 0.861109C33.9013 0.500013 33.6993 0.182979 33.3717 0.0559468C33.0459 -0.0698354 32.659 0.0207121 32.3935 0.284933L26.5108 6.16826L26.2132 12.5216L15.5183 23.2158C14.9742 23.0925 14.3804 23.2385 13.9564 23.6624C13.2984 24.3204 13.2984 25.386 13.9564 26.044C14.6137 26.7019 15.68 26.7019 16.338 26.044C16.7612 25.62 16.9079 25.0261 16.7845 24.4814L27.4788 13.7865L33.8315 13.4896L39.7149 7.60554C39.9798 7.34077 40.0697 6.95506 39.9438 6.62803Z" fill="#6949A8"/>
</svg>
