<svg width="182" height="182" viewBox="0 0 182 182" fill="none" xmlns="http://www.w3.org/2000/svg">
<g filter="url(#filter0_d_357_776)">
<circle cx="90.8693" cy="86.8693" r="50.8693" fill="#E6DEF7"/>
<circle cx="90.8693" cy="86.8693" r="46.8693" stroke="url(#paint0_linear_357_776)" stroke-width="8"/>
</g>
<circle cx="90.2678" cy="87.4675" r="29.0139" stroke="#A78BFA" stroke-width="9"/>
<circle cx="90.8706" cy="86.8697" r="11.7378" stroke="#504485" stroke-width="6"/>
<path d="M51.9688 133.95H97.6494V143.92H51.9688C49.2159 143.92 46.9844 141.687 46.9844 138.935C46.9845 136.182 49.216 133.95 51.9688 133.95Z" fill="#4F4484" stroke="#4F4483" stroke-width="2"/>
<path d="M98.6484 132.95H123.784V144.919H98.6484V132.95Z" fill="#A78BFA"/>
<path d="M123.785 132.95H158.496C161.801 132.95 164.481 135.63 164.481 138.935C164.481 142.24 161.801 144.919 158.496 144.919H123.785V132.95Z" fill="#E6DEF7"/>
<path d="M134.588 56.7914C135.633 56.8628 136.658 56.7395 137.604 56.4285C138.55 56.1176 139.398 55.6251 140.1 54.9795L151.828 44.2267C152.138 43.9428 152.341 43.5679 152.409 43.1495C152.477 42.7311 152.408 42.2879 152.211 41.8761C152.014 41.4644 151.697 41.1024 151.301 40.8362C150.905 40.5699 150.448 40.4113 149.986 40.3804L142.994 39.9134C141.757 39.8309 140.547 39.2907 139.63 38.4118C138.713 37.533 138.163 36.3873 138.103 35.227L137.759 28.6642C137.737 28.2311 137.578 27.7983 137.303 27.4207C137.028 27.0431 136.649 26.7378 136.214 26.5434C135.779 26.3491 135.307 26.2744 134.859 26.3289C134.411 26.3834 134.006 26.5646 133.696 26.8496L121.968 37.6068C121.264 38.2498 120.72 39.0337 120.368 39.9133C120.015 40.7929 119.861 41.7508 119.914 42.7319L120.373 51.4822C120.434 52.6426 120.983 53.7882 121.901 54.6671C122.818 55.546 124.028 56.0861 125.264 56.1687L134.588 56.7914Z" fill="#504485" stroke="#E6DEF7" stroke-width="4" stroke-linecap="round" stroke-linejoin="round"/>
<path d="M89.7496 79.9608L116.242 54.4952C118.089 52.7205 121.025 52.7783 122.799 54.6248C124.574 56.4713 124.516 59.4072 122.67 61.1822L96.1774 86.6478C94.3308 88.4228 91.395 88.3648 89.62 86.5182C87.845 84.6717 87.903 81.7358 89.7496 79.9608Z" fill="#4C834E" stroke="#E6DEF7" stroke-width="3"/>
<path d="M121.854 52.3412C122.792 51.4397 124.284 51.4686 125.186 52.4064C126.087 53.3443 126.057 54.836 125.119 55.7375L93.1738 86.4446C92.2358 87.3461 90.7448 87.3167 89.8433 86.3788C88.9419 85.4409 88.9713 83.9499 89.9091 83.0483L121.854 52.3412Z" fill="#504485"/>
<path d="M121.854 52.3412C122.792 51.4397 124.284 51.4686 125.186 52.4064C126.087 53.3443 126.057 54.836 125.119 55.7375L93.1738 86.4446C92.2358 87.3461 90.7448 87.3167 89.8433 86.3788C88.9419 85.4409 88.9713 83.9499 89.9091 83.0483L121.854 52.3412Z" stroke="#FFF7EB"/>
<defs>
<filter id="filter0_d_357_776" x="0" y="0" width="181.738" height="181.739" filterUnits="userSpaceOnUse" color-interpolation-filters="sRGB">
<feFlood flood-opacity="0" result="BackgroundImageFix"/>
<feColorMatrix in="SourceAlpha" type="matrix" values="0 0 0 0 0 0 0 0 0 0 0 0 0 0 0 0 0 0 127 0" result="hardAlpha"/>
<feOffset dy="4"/>
<feGaussianBlur stdDeviation="20"/>
<feComposite in2="hardAlpha" operator="out"/>
<feColorMatrix type="matrix" values="0 0 0 0 0.411765 0 0 0 0 0.286275 0 0 0 0 0.658824 0 0 0 1 0"/>
<feBlend mode="normal" in2="BackgroundImageFix" result="effect1_dropShadow_357_776"/>
<feBlend mode="normal" in="SourceGraphic" in2="effect1_dropShadow_357_776" result="shape"/>
</filter>
<linearGradient id="paint0_linear_357_776" x1="90.8693" y1="36" x2="90.8693" y2="137.739" gradientUnits="userSpaceOnUse">
<stop stop-color="#6258D4"/>
<stop offset="1" stop-color="#4D417B"/>
</linearGradient>
</defs>
</svg>
